<mxfile host="app.diagrams.net" modified="2024-03-17T20:14:58.047Z" agent="Mozilla/5.0 (Windows NT 10.0; Win64; x64; rv:123.0) Gecko/20100101 Firefox/123.0" etag="YYFmtNPZow56mM8PhS8c" version="24.0.7" type="device">
  <diagram id="C5RBs43oDa-KdzZeNtuy" name="Page-1">
    <mxGraphModel dx="2263" dy="1928" grid="1" gridSize="10" guides="1" tooltips="1" connect="1" arrows="1" fold="1" page="1" pageScale="1" pageWidth="827" pageHeight="1169" math="0" shadow="0">
      <root>
        <mxCell id="WIyWlLk6GJQsqaUBKTNV-0" />
        <mxCell id="WIyWlLk6GJQsqaUBKTNV-1" parent="WIyWlLk6GJQsqaUBKTNV-0" />
        <mxCell id="C9QC6dtbuInkQibl6JLa-49" style="edgeStyle=orthogonalEdgeStyle;shape=connector;rounded=0;orthogonalLoop=1;jettySize=auto;html=1;labelBackgroundColor=default;strokeColor=default;align=center;verticalAlign=middle;fontFamily=Helvetica;fontSize=11;fontColor=default;startArrow=none;startFill=0;endArrow=open;endFill=0;" parent="WIyWlLk6GJQsqaUBKTNV-1" source="C9QC6dtbuInkQibl6JLa-12" target="C9QC6dtbuInkQibl6JLa-20" edge="1">
          <mxGeometry relative="1" as="geometry">
            <Array as="points">
              <mxPoint x="-270" y="-90" />
            </Array>
          </mxGeometry>
        </mxCell>
        <mxCell id="NVvjuVTjwXFd6pgVgbkl-103" style="edgeStyle=orthogonalEdgeStyle;rounded=0;orthogonalLoop=1;jettySize=auto;html=1;strokeColor=default;align=center;verticalAlign=middle;fontFamily=Helvetica;fontSize=11;fontColor=default;labelBackgroundColor=default;endArrow=open;endFill=0;" edge="1" parent="WIyWlLk6GJQsqaUBKTNV-1" source="C9QC6dtbuInkQibl6JLa-12" target="C9QC6dtbuInkQibl6JLa-16">
          <mxGeometry relative="1" as="geometry" />
        </mxCell>
        <mxCell id="C9QC6dtbuInkQibl6JLa-12" value="Helicopter" style="swimlane;fontStyle=1;align=center;verticalAlign=top;childLayout=stackLayout;horizontal=1;startSize=26;horizontalStack=0;resizeParent=1;resizeParentMax=0;resizeLast=0;collapsible=1;marginBottom=0;whiteSpace=wrap;html=1;" parent="WIyWlLk6GJQsqaUBKTNV-1" vertex="1">
          <mxGeometry x="-140" y="-170" width="210" height="160" as="geometry" />
        </mxCell>
        <mxCell id="C9QC6dtbuInkQibl6JLa-13" value="coordinate&lt;br&gt;&lt;div&gt;locationHelicopterMap&lt;/div&gt;&lt;div&gt;speed&lt;/div&gt;&lt;div&gt;uuid&lt;br&gt;&lt;/div&gt;" style="text;strokeColor=none;fillColor=none;align=left;verticalAlign=top;spacingLeft=4;spacingRight=4;overflow=hidden;rotatable=0;points=[[0,0.5],[1,0.5]];portConstraint=eastwest;whiteSpace=wrap;html=1;" parent="C9QC6dtbuInkQibl6JLa-12" vertex="1">
          <mxGeometry y="26" width="210" height="64" as="geometry" />
        </mxCell>
        <mxCell id="C9QC6dtbuInkQibl6JLa-14" value="" style="line;strokeWidth=1;fillColor=none;align=left;verticalAlign=middle;spacingTop=-1;spacingLeft=3;spacingRight=3;rotatable=0;labelPosition=right;points=[];portConstraint=eastwest;strokeColor=inherit;" parent="C9QC6dtbuInkQibl6JLa-12" vertex="1">
          <mxGeometry y="90" width="210" height="8" as="geometry" />
        </mxCell>
        <mxCell id="C9QC6dtbuInkQibl6JLa-15" value="&lt;div&gt;allocateLocation()&lt;/div&gt;&lt;div&gt;removeLocation()&lt;/div&gt;&lt;div&gt;getData()&lt;br&gt;&lt;/div&gt;" style="text;strokeColor=none;fillColor=none;align=left;verticalAlign=top;spacingLeft=4;spacingRight=4;overflow=hidden;rotatable=0;points=[[0,0.5],[1,0.5]];portConstraint=eastwest;whiteSpace=wrap;html=1;" parent="C9QC6dtbuInkQibl6JLa-12" vertex="1">
          <mxGeometry y="98" width="210" height="62" as="geometry" />
        </mxCell>
        <mxCell id="C9QC6dtbuInkQibl6JLa-48" style="edgeStyle=orthogonalEdgeStyle;shape=connector;rounded=0;orthogonalLoop=1;jettySize=auto;html=1;labelBackgroundColor=default;strokeColor=default;align=center;verticalAlign=middle;fontFamily=Helvetica;fontSize=11;fontColor=default;startArrow=none;startFill=0;endArrow=open;endFill=0;" parent="WIyWlLk6GJQsqaUBKTNV-1" source="C9QC6dtbuInkQibl6JLa-16" target="C9QC6dtbuInkQibl6JLa-20" edge="1">
          <mxGeometry relative="1" as="geometry">
            <Array as="points">
              <mxPoint x="-270" y="110" />
            </Array>
          </mxGeometry>
        </mxCell>
        <mxCell id="C9QC6dtbuInkQibl6JLa-16" value="Location" style="swimlane;fontStyle=1;align=center;verticalAlign=top;childLayout=stackLayout;horizontal=1;startSize=26;horizontalStack=0;resizeParent=1;resizeParentMax=0;resizeLast=0;collapsible=1;marginBottom=0;whiteSpace=wrap;html=1;" parent="WIyWlLk6GJQsqaUBKTNV-1" vertex="1">
          <mxGeometry x="-115" y="42" width="160" height="100" as="geometry" />
        </mxCell>
        <mxCell id="C9QC6dtbuInkQibl6JLa-17" value="coordinate&amp;nbsp;&lt;br&gt;name&lt;br&gt;&lt;div&gt;accidents&lt;/div&gt;&lt;div&gt;uuid&lt;br&gt;&lt;/div&gt;" style="text;strokeColor=none;fillColor=none;align=left;verticalAlign=top;spacingLeft=4;spacingRight=4;overflow=hidden;rotatable=0;points=[[0,0.5],[1,0.5]];portConstraint=eastwest;whiteSpace=wrap;html=1;" parent="C9QC6dtbuInkQibl6JLa-16" vertex="1">
          <mxGeometry y="26" width="160" height="74" as="geometry" />
        </mxCell>
        <mxCell id="NVvjuVTjwXFd6pgVgbkl-155" style="edgeStyle=orthogonalEdgeStyle;rounded=0;orthogonalLoop=1;jettySize=auto;html=1;strokeColor=default;align=center;verticalAlign=middle;fontFamily=Helvetica;fontSize=11;fontColor=default;labelBackgroundColor=default;endArrow=open;endFill=0;" edge="1" parent="WIyWlLk6GJQsqaUBKTNV-1" source="C9QC6dtbuInkQibl6JLa-24" target="jCvs58Pun3LBgpKlKiIc-10">
          <mxGeometry relative="1" as="geometry" />
        </mxCell>
        <mxCell id="C9QC6dtbuInkQibl6JLa-24" value="Axis" style="swimlane;fontStyle=1;align=center;verticalAlign=top;childLayout=stackLayout;horizontal=1;startSize=26;horizontalStack=0;resizeParent=1;resizeParentMax=0;resizeLast=0;collapsible=1;marginBottom=0;whiteSpace=wrap;html=1;" parent="WIyWlLk6GJQsqaUBKTNV-1" vertex="1">
          <mxGeometry x="-140" y="477" width="160" height="80" as="geometry" />
        </mxCell>
        <mxCell id="C9QC6dtbuInkQibl6JLa-25" value="scale&lt;br&gt;&lt;div&gt;dimension&lt;/div&gt;&lt;div&gt;values&lt;br&gt;&lt;/div&gt;" style="text;strokeColor=none;fillColor=none;align=left;verticalAlign=top;spacingLeft=4;spacingRight=4;overflow=hidden;rotatable=0;points=[[0,0.5],[1,0.5]];portConstraint=eastwest;whiteSpace=wrap;html=1;" parent="C9QC6dtbuInkQibl6JLa-24" vertex="1">
          <mxGeometry y="26" width="160" height="54" as="geometry" />
        </mxCell>
        <mxCell id="C9QC6dtbuInkQibl6JLa-28" value="LocationMapper" style="swimlane;fontStyle=1;align=center;verticalAlign=top;childLayout=stackLayout;horizontal=1;startSize=26;horizontalStack=0;resizeParent=1;resizeParentMax=0;resizeLast=0;collapsible=1;marginBottom=0;whiteSpace=wrap;html=1;" parent="WIyWlLk6GJQsqaUBKTNV-1" vertex="1">
          <mxGeometry x="514" y="-320" width="160" height="60" as="geometry" />
        </mxCell>
        <mxCell id="C9QC6dtbuInkQibl6JLa-30" value="" style="line;strokeWidth=1;fillColor=none;align=left;verticalAlign=middle;spacingTop=-1;spacingLeft=3;spacingRight=3;rotatable=0;labelPosition=right;points=[];portConstraint=eastwest;strokeColor=inherit;" parent="C9QC6dtbuInkQibl6JLa-28" vertex="1">
          <mxGeometry y="26" width="160" height="8" as="geometry" />
        </mxCell>
        <mxCell id="C9QC6dtbuInkQibl6JLa-31" value="mapToLocationObjects()" style="text;strokeColor=none;fillColor=none;align=left;verticalAlign=top;spacingLeft=4;spacingRight=4;overflow=hidden;rotatable=0;points=[[0,0.5],[1,0.5]];portConstraint=eastwest;whiteSpace=wrap;html=1;" parent="C9QC6dtbuInkQibl6JLa-28" vertex="1">
          <mxGeometry y="34" width="160" height="26" as="geometry" />
        </mxCell>
        <mxCell id="C9QC6dtbuInkQibl6JLa-32" value="ScaleMapper" style="swimlane;fontStyle=1;align=center;verticalAlign=top;childLayout=stackLayout;horizontal=1;startSize=26;horizontalStack=0;resizeParent=1;resizeParentMax=0;resizeLast=0;collapsible=1;marginBottom=0;whiteSpace=wrap;html=1;" parent="WIyWlLk6GJQsqaUBKTNV-1" vertex="1">
          <mxGeometry x="-160" y="188" width="200" height="122" as="geometry" />
        </mxCell>
        <mxCell id="C9QC6dtbuInkQibl6JLa-35" value="&lt;div&gt;specifyAxisScales()&lt;/div&gt;&lt;div&gt;determineAxisDimension()&lt;/div&gt;&lt;div&gt;calcScale()&lt;/div&gt;&lt;div&gt;scaleCoordinatesAndAxisValues()&lt;/div&gt;&lt;div&gt;scaleCoordinates()&lt;br&gt;&lt;/div&gt;" style="text;strokeColor=none;fillColor=none;align=left;verticalAlign=top;spacingLeft=4;spacingRight=4;overflow=hidden;rotatable=0;points=[[0,0.5],[1,0.5]];portConstraint=eastwest;whiteSpace=wrap;html=1;" parent="C9QC6dtbuInkQibl6JLa-32" vertex="1">
          <mxGeometry y="26" width="200" height="96" as="geometry" />
        </mxCell>
        <mxCell id="C9QC6dtbuInkQibl6JLa-20" value="Coordinate" style="swimlane;fontStyle=1;align=center;verticalAlign=top;childLayout=stackLayout;horizontal=1;startSize=26;horizontalStack=0;resizeParent=1;resizeParentMax=0;resizeLast=0;collapsible=1;marginBottom=0;whiteSpace=wrap;html=1;" parent="WIyWlLk6GJQsqaUBKTNV-1" vertex="1">
          <mxGeometry x="-360" y="-20" width="160" height="70" as="geometry" />
        </mxCell>
        <mxCell id="C9QC6dtbuInkQibl6JLa-21" value="x&lt;br&gt;y" style="text;strokeColor=none;fillColor=none;align=left;verticalAlign=top;spacingLeft=4;spacingRight=4;overflow=hidden;rotatable=0;points=[[0,0.5],[1,0.5]];portConstraint=eastwest;whiteSpace=wrap;html=1;" parent="C9QC6dtbuInkQibl6JLa-20" vertex="1">
          <mxGeometry y="26" width="160" height="44" as="geometry" />
        </mxCell>
        <mxCell id="jCvs58Pun3LBgpKlKiIc-4" value="JPanel" style="swimlane;fontStyle=1;align=center;verticalAlign=top;childLayout=stackLayout;horizontal=1;startSize=26;horizontalStack=0;resizeParent=1;resizeParentMax=0;resizeLast=0;collapsible=1;marginBottom=0;whiteSpace=wrap;html=1;" parent="WIyWlLk6GJQsqaUBKTNV-1" vertex="1">
          <mxGeometry x="350" y="148" width="160" height="34" as="geometry" />
        </mxCell>
        <mxCell id="jCvs58Pun3LBgpKlKiIc-6" value="" style="line;strokeWidth=1;fillColor=none;align=left;verticalAlign=middle;spacingTop=-1;spacingLeft=3;spacingRight=3;rotatable=0;labelPosition=right;points=[];portConstraint=eastwest;strokeColor=inherit;" parent="jCvs58Pun3LBgpKlKiIc-4" vertex="1">
          <mxGeometry y="26" width="160" height="8" as="geometry" />
        </mxCell>
        <mxCell id="jCvs58Pun3LBgpKlKiIc-10" value="«enumeration»&lt;br&gt;Dimension" style="swimlane;fontStyle=1;align=center;verticalAlign=top;childLayout=stackLayout;horizontal=1;startSize=40;horizontalStack=0;resizeParent=1;resizeParentMax=0;resizeLast=0;collapsible=1;marginBottom=0;whiteSpace=wrap;html=1;" parent="WIyWlLk6GJQsqaUBKTNV-1" vertex="1">
          <mxGeometry x="-140" y="345" width="160" height="80" as="geometry" />
        </mxCell>
        <mxCell id="jCvs58Pun3LBgpKlKiIc-11" value="X&lt;br&gt;Y" style="text;strokeColor=none;fillColor=none;align=left;verticalAlign=top;spacingLeft=4;spacingRight=4;overflow=hidden;rotatable=0;points=[[0,0.5],[1,0.5]];portConstraint=eastwest;whiteSpace=wrap;html=1;" parent="jCvs58Pun3LBgpKlKiIc-10" vertex="1">
          <mxGeometry y="40" width="160" height="40" as="geometry" />
        </mxCell>
        <mxCell id="NVvjuVTjwXFd6pgVgbkl-9" style="edgeStyle=orthogonalEdgeStyle;rounded=0;orthogonalLoop=1;jettySize=auto;html=1;endArrow=open;endFill=0;" edge="1" parent="WIyWlLk6GJQsqaUBKTNV-1" source="NVvjuVTjwXFd6pgVgbkl-0" target="NVvjuVTjwXFd6pgVgbkl-4">
          <mxGeometry relative="1" as="geometry" />
        </mxCell>
        <mxCell id="NVvjuVTjwXFd6pgVgbkl-0" value="Main" style="swimlane;fontStyle=1;align=center;verticalAlign=top;childLayout=stackLayout;horizontal=1;startSize=26;horizontalStack=0;resizeParent=1;resizeParentMax=0;resizeLast=0;collapsible=1;marginBottom=0;whiteSpace=wrap;html=1;" vertex="1" parent="WIyWlLk6GJQsqaUBKTNV-1">
          <mxGeometry x="190" y="-624" width="160" height="52" as="geometry" />
        </mxCell>
        <mxCell id="NVvjuVTjwXFd6pgVgbkl-3" value="main()" style="text;strokeColor=none;fillColor=none;align=left;verticalAlign=top;spacingLeft=4;spacingRight=4;overflow=hidden;rotatable=0;points=[[0,0.5],[1,0.5]];portConstraint=eastwest;whiteSpace=wrap;html=1;" vertex="1" parent="NVvjuVTjwXFd6pgVgbkl-0">
          <mxGeometry y="26" width="160" height="26" as="geometry" />
        </mxCell>
        <mxCell id="NVvjuVTjwXFd6pgVgbkl-18" style="edgeStyle=orthogonalEdgeStyle;rounded=0;orthogonalLoop=1;jettySize=auto;html=1;strokeColor=default;align=center;verticalAlign=middle;fontFamily=Helvetica;fontSize=11;fontColor=default;labelBackgroundColor=default;endArrow=open;endFill=0;" edge="1" parent="WIyWlLk6GJQsqaUBKTNV-1" source="NVvjuVTjwXFd6pgVgbkl-4" target="NVvjuVTjwXFd6pgVgbkl-14">
          <mxGeometry relative="1" as="geometry" />
        </mxCell>
        <mxCell id="NVvjuVTjwXFd6pgVgbkl-4" value="Application" style="swimlane;fontStyle=0;childLayout=stackLayout;horizontal=1;startSize=26;fillColor=none;horizontalStack=0;resizeParent=1;resizeParentMax=0;resizeLast=0;collapsible=1;marginBottom=0;whiteSpace=wrap;html=1;" vertex="1" parent="WIyWlLk6GJQsqaUBKTNV-1">
          <mxGeometry x="200" y="-498" width="140" height="52" as="geometry" />
        </mxCell>
        <mxCell id="NVvjuVTjwXFd6pgVgbkl-7" value="start()" style="text;strokeColor=none;fillColor=none;align=left;verticalAlign=top;spacingLeft=4;spacingRight=4;overflow=hidden;rotatable=0;points=[[0,0.5],[1,0.5]];portConstraint=eastwest;whiteSpace=wrap;html=1;" vertex="1" parent="NVvjuVTjwXFd6pgVgbkl-4">
          <mxGeometry y="26" width="140" height="26" as="geometry" />
        </mxCell>
        <mxCell id="NVvjuVTjwXFd6pgVgbkl-28" style="edgeStyle=orthogonalEdgeStyle;rounded=0;orthogonalLoop=1;jettySize=auto;html=1;strokeColor=default;align=center;verticalAlign=middle;fontFamily=Helvetica;fontSize=11;fontColor=default;labelBackgroundColor=default;endArrow=open;endFill=0;" edge="1" parent="WIyWlLk6GJQsqaUBKTNV-1" source="NVvjuVTjwXFd6pgVgbkl-14" target="NVvjuVTjwXFd6pgVgbkl-24">
          <mxGeometry relative="1" as="geometry">
            <Array as="points">
              <mxPoint x="270" y="-110" />
              <mxPoint x="300" y="-110" />
            </Array>
          </mxGeometry>
        </mxCell>
        <mxCell id="NVvjuVTjwXFd6pgVgbkl-38" style="edgeStyle=orthogonalEdgeStyle;rounded=0;orthogonalLoop=1;jettySize=auto;html=1;strokeColor=default;align=center;verticalAlign=middle;fontFamily=Helvetica;fontSize=11;fontColor=default;labelBackgroundColor=default;endArrow=open;endFill=0;" edge="1" parent="WIyWlLk6GJQsqaUBKTNV-1" source="NVvjuVTjwXFd6pgVgbkl-14" target="NVvjuVTjwXFd6pgVgbkl-32">
          <mxGeometry relative="1" as="geometry">
            <Array as="points">
              <mxPoint x="450" y="-310" />
            </Array>
          </mxGeometry>
        </mxCell>
        <mxCell id="NVvjuVTjwXFd6pgVgbkl-44" style="edgeStyle=orthogonalEdgeStyle;rounded=0;orthogonalLoop=1;jettySize=auto;html=1;strokeColor=default;align=center;verticalAlign=middle;fontFamily=Helvetica;fontSize=11;fontColor=default;labelBackgroundColor=default;endArrow=open;endFill=0;" edge="1" parent="WIyWlLk6GJQsqaUBKTNV-1" source="NVvjuVTjwXFd6pgVgbkl-14" target="C9QC6dtbuInkQibl6JLa-12">
          <mxGeometry relative="1" as="geometry">
            <Array as="points">
              <mxPoint x="130" y="-240" />
              <mxPoint x="130" y="-140" />
            </Array>
          </mxGeometry>
        </mxCell>
        <mxCell id="NVvjuVTjwXFd6pgVgbkl-70" style="edgeStyle=orthogonalEdgeStyle;rounded=0;orthogonalLoop=1;jettySize=auto;html=1;strokeColor=default;align=center;verticalAlign=middle;fontFamily=Helvetica;fontSize=11;fontColor=default;labelBackgroundColor=default;endArrow=open;endFill=0;dashed=1;dashPattern=8 8;" edge="1" parent="WIyWlLk6GJQsqaUBKTNV-1" source="NVvjuVTjwXFd6pgVgbkl-14" target="NVvjuVTjwXFd6pgVgbkl-66">
          <mxGeometry relative="1" as="geometry">
            <Array as="points">
              <mxPoint x="150" y="-300" />
              <mxPoint x="150" y="-470" />
            </Array>
          </mxGeometry>
        </mxCell>
        <mxCell id="NVvjuVTjwXFd6pgVgbkl-14" value="&lt;div&gt;MainController&lt;/div&gt;" style="swimlane;fontStyle=1;align=center;verticalAlign=top;childLayout=stackLayout;horizontal=1;startSize=26;horizontalStack=0;resizeParent=1;resizeParentMax=0;resizeLast=0;collapsible=1;marginBottom=0;whiteSpace=wrap;html=1;fontFamily=Helvetica;fontSize=11;fontColor=default;labelBackgroundColor=default;" vertex="1" parent="WIyWlLk6GJQsqaUBKTNV-1">
          <mxGeometry x="190" y="-340" width="160" height="200" as="geometry" />
        </mxCell>
        <mxCell id="NVvjuVTjwXFd6pgVgbkl-15" value="&lt;div&gt;csvParser&lt;/div&gt;&lt;div&gt;gui&lt;/div&gt;&lt;div&gt;helicopterList&lt;br&gt;&lt;/div&gt;" style="text;strokeColor=none;fillColor=none;align=left;verticalAlign=top;spacingLeft=4;spacingRight=4;overflow=hidden;rotatable=0;points=[[0,0.5],[1,0.5]];portConstraint=eastwest;whiteSpace=wrap;html=1;fontFamily=Helvetica;fontSize=11;fontColor=default;labelBackgroundColor=default;" vertex="1" parent="NVvjuVTjwXFd6pgVgbkl-14">
          <mxGeometry y="26" width="160" height="54" as="geometry" />
        </mxCell>
        <mxCell id="NVvjuVTjwXFd6pgVgbkl-16" value="" style="line;strokeWidth=1;fillColor=none;align=left;verticalAlign=middle;spacingTop=-1;spacingLeft=3;spacingRight=3;rotatable=0;labelPosition=right;points=[];portConstraint=eastwest;strokeColor=inherit;fontFamily=Helvetica;fontSize=11;fontColor=default;labelBackgroundColor=default;" vertex="1" parent="NVvjuVTjwXFd6pgVgbkl-14">
          <mxGeometry y="80" width="160" height="8" as="geometry" />
        </mxCell>
        <mxCell id="NVvjuVTjwXFd6pgVgbkl-17" value="&lt;div&gt;startGUI()&lt;/div&gt;&lt;div&gt;calculate()&lt;/div&gt;&lt;div&gt;closeApp()&lt;/div&gt;&lt;div&gt;importCSV()&lt;/div&gt;&lt;div&gt;exportCsvTemplate()&lt;/div&gt;&lt;div&gt;exportSolution()&lt;/div&gt;&lt;div&gt;saveTable()&lt;/div&gt;" style="text;strokeColor=none;fillColor=none;align=left;verticalAlign=top;spacingLeft=4;spacingRight=4;overflow=hidden;rotatable=0;points=[[0,0.5],[1,0.5]];portConstraint=eastwest;whiteSpace=wrap;html=1;fontFamily=Helvetica;fontSize=11;fontColor=default;labelBackgroundColor=default;" vertex="1" parent="NVvjuVTjwXFd6pgVgbkl-14">
          <mxGeometry y="88" width="160" height="112" as="geometry" />
        </mxCell>
        <mxCell id="NVvjuVTjwXFd6pgVgbkl-171" style="edgeStyle=orthogonalEdgeStyle;rounded=0;orthogonalLoop=1;jettySize=auto;html=1;dashed=1;dashPattern=8 8;strokeColor=default;align=center;verticalAlign=middle;fontFamily=Helvetica;fontSize=11;fontColor=default;labelBackgroundColor=default;endArrow=open;endFill=0;" edge="1" parent="WIyWlLk6GJQsqaUBKTNV-1" source="NVvjuVTjwXFd6pgVgbkl-19" target="NVvjuVTjwXFd6pgVgbkl-121">
          <mxGeometry relative="1" as="geometry" />
        </mxCell>
        <mxCell id="NVvjuVTjwXFd6pgVgbkl-19" value="TableController" style="swimlane;fontStyle=1;align=center;verticalAlign=top;childLayout=stackLayout;horizontal=1;startSize=26;horizontalStack=0;resizeParent=1;resizeParentMax=0;resizeLast=0;collapsible=1;marginBottom=0;whiteSpace=wrap;html=1;fontFamily=Helvetica;fontSize=11;fontColor=default;labelBackgroundColor=default;" vertex="1" parent="WIyWlLk6GJQsqaUBKTNV-1">
          <mxGeometry x="-80" y="-350" width="160" height="140" as="geometry" />
        </mxCell>
        <mxCell id="NVvjuVTjwXFd6pgVgbkl-20" value="dataTable" style="text;strokeColor=none;fillColor=none;align=left;verticalAlign=top;spacingLeft=4;spacingRight=4;overflow=hidden;rotatable=0;points=[[0,0.5],[1,0.5]];portConstraint=eastwest;whiteSpace=wrap;html=1;fontFamily=Helvetica;fontSize=11;fontColor=default;labelBackgroundColor=default;" vertex="1" parent="NVvjuVTjwXFd6pgVgbkl-19">
          <mxGeometry y="26" width="160" height="26" as="geometry" />
        </mxCell>
        <mxCell id="NVvjuVTjwXFd6pgVgbkl-21" value="" style="line;strokeWidth=1;fillColor=none;align=left;verticalAlign=middle;spacingTop=-1;spacingLeft=3;spacingRight=3;rotatable=0;labelPosition=right;points=[];portConstraint=eastwest;strokeColor=inherit;fontFamily=Helvetica;fontSize=11;fontColor=default;labelBackgroundColor=default;" vertex="1" parent="NVvjuVTjwXFd6pgVgbkl-19">
          <mxGeometry y="52" width="160" height="8" as="geometry" />
        </mxCell>
        <mxCell id="NVvjuVTjwXFd6pgVgbkl-22" value="&lt;div&gt;put()&lt;/div&gt;&lt;div&gt;delete()&lt;/div&gt;&lt;div&gt;loadCsvToTableModel()&lt;/div&gt;&lt;div&gt;getTableModel()&lt;/div&gt;&lt;div&gt;getTableData()&lt;br&gt;&lt;/div&gt;" style="text;strokeColor=none;fillColor=none;align=left;verticalAlign=top;spacingLeft=4;spacingRight=4;overflow=hidden;rotatable=0;points=[[0,0.5],[1,0.5]];portConstraint=eastwest;whiteSpace=wrap;html=1;fontFamily=Helvetica;fontSize=11;fontColor=default;labelBackgroundColor=default;" vertex="1" parent="NVvjuVTjwXFd6pgVgbkl-19">
          <mxGeometry y="60" width="160" height="80" as="geometry" />
        </mxCell>
        <mxCell id="NVvjuVTjwXFd6pgVgbkl-88" style="edgeStyle=orthogonalEdgeStyle;rounded=0;orthogonalLoop=1;jettySize=auto;html=1;strokeColor=default;align=center;verticalAlign=middle;fontFamily=Helvetica;fontSize=11;fontColor=default;labelBackgroundColor=default;endArrow=open;endFill=0;" edge="1" parent="WIyWlLk6GJQsqaUBKTNV-1" source="NVvjuVTjwXFd6pgVgbkl-24" target="NVvjuVTjwXFd6pgVgbkl-80">
          <mxGeometry relative="1" as="geometry">
            <Array as="points">
              <mxPoint x="290" y="155" />
              <mxPoint x="230" y="155" />
              <mxPoint x="230" y="270" />
            </Array>
          </mxGeometry>
        </mxCell>
        <mxCell id="NVvjuVTjwXFd6pgVgbkl-101" style="edgeStyle=orthogonalEdgeStyle;rounded=0;orthogonalLoop=1;jettySize=auto;html=1;strokeColor=default;align=center;verticalAlign=middle;fontFamily=Helvetica;fontSize=11;fontColor=default;labelBackgroundColor=default;endArrow=open;endFill=0;" edge="1" parent="WIyWlLk6GJQsqaUBKTNV-1" source="NVvjuVTjwXFd6pgVgbkl-24" target="NVvjuVTjwXFd6pgVgbkl-97">
          <mxGeometry relative="1" as="geometry" />
        </mxCell>
        <mxCell id="NVvjuVTjwXFd6pgVgbkl-186" style="edgeStyle=orthogonalEdgeStyle;rounded=0;orthogonalLoop=1;jettySize=auto;html=1;strokeColor=default;align=center;verticalAlign=middle;fontFamily=Helvetica;fontSize=11;fontColor=default;labelBackgroundColor=default;endArrow=block;endFill=1;" edge="1" parent="WIyWlLk6GJQsqaUBKTNV-1" source="NVvjuVTjwXFd6pgVgbkl-24" target="NVvjuVTjwXFd6pgVgbkl-184">
          <mxGeometry relative="1" as="geometry">
            <Array as="points">
              <mxPoint x="180" y="4" />
            </Array>
          </mxGeometry>
        </mxCell>
        <mxCell id="NVvjuVTjwXFd6pgVgbkl-24" value="GUI&lt;br&gt;" style="swimlane;fontStyle=1;align=center;verticalAlign=top;childLayout=stackLayout;horizontal=1;startSize=26;horizontalStack=0;resizeParent=1;resizeParentMax=0;resizeLast=0;collapsible=1;marginBottom=0;whiteSpace=wrap;html=1;" vertex="1" parent="WIyWlLk6GJQsqaUBKTNV-1">
          <mxGeometry x="220" y="-86" width="160" height="180" as="geometry" />
        </mxCell>
        <mxCell id="NVvjuVTjwXFd6pgVgbkl-25" value="&lt;div&gt;inputPane&lt;/div&gt;&lt;div&gt;drawPane&lt;br&gt;&lt;/div&gt;" style="text;strokeColor=none;fillColor=none;align=left;verticalAlign=top;spacingLeft=4;spacingRight=4;overflow=hidden;rotatable=0;points=[[0,0.5],[1,0.5]];portConstraint=eastwest;whiteSpace=wrap;html=1;" vertex="1" parent="NVvjuVTjwXFd6pgVgbkl-24">
          <mxGeometry y="26" width="160" height="44" as="geometry" />
        </mxCell>
        <mxCell id="NVvjuVTjwXFd6pgVgbkl-26" value="" style="line;strokeWidth=1;fillColor=none;align=left;verticalAlign=middle;spacingTop=-1;spacingLeft=3;spacingRight=3;rotatable=0;labelPosition=right;points=[];portConstraint=eastwest;strokeColor=inherit;" vertex="1" parent="NVvjuVTjwXFd6pgVgbkl-24">
          <mxGeometry y="70" width="160" height="8" as="geometry" />
        </mxCell>
        <mxCell id="NVvjuVTjwXFd6pgVgbkl-27" value="&lt;div&gt;getHeliNumberFieldInput()&lt;/div&gt;&lt;div&gt;getSpeedFieldInput()&lt;/div&gt;&lt;div&gt;showErrorMsg()&lt;/div&gt;&lt;div&gt;hideErrorMsg()&lt;/div&gt;&lt;div&gt;showLocations()&lt;/div&gt;&lt;div&gt;showSolution()&lt;br&gt;&lt;/div&gt;&lt;div&gt;&lt;br&gt;&lt;/div&gt;" style="text;strokeColor=none;fillColor=none;align=left;verticalAlign=top;spacingLeft=4;spacingRight=4;overflow=hidden;rotatable=0;points=[[0,0.5],[1,0.5]];portConstraint=eastwest;whiteSpace=wrap;html=1;" vertex="1" parent="NVvjuVTjwXFd6pgVgbkl-24">
          <mxGeometry y="78" width="160" height="102" as="geometry" />
        </mxCell>
        <mxCell id="NVvjuVTjwXFd6pgVgbkl-37" style="edgeStyle=orthogonalEdgeStyle;rounded=0;orthogonalLoop=1;jettySize=auto;html=1;strokeColor=default;align=center;verticalAlign=middle;fontFamily=Helvetica;fontSize=11;fontColor=default;labelBackgroundColor=default;endArrow=block;endFill=1;" edge="1" parent="WIyWlLk6GJQsqaUBKTNV-1" source="NVvjuVTjwXFd6pgVgbkl-29" target="NVvjuVTjwXFd6pgVgbkl-33">
          <mxGeometry relative="1" as="geometry" />
        </mxCell>
        <mxCell id="NVvjuVTjwXFd6pgVgbkl-172" style="edgeStyle=orthogonalEdgeStyle;rounded=0;orthogonalLoop=1;jettySize=auto;html=1;dashed=1;dashPattern=8 8;strokeColor=default;align=center;verticalAlign=middle;fontFamily=Helvetica;fontSize=11;fontColor=default;labelBackgroundColor=default;endArrow=open;endFill=0;" edge="1" parent="WIyWlLk6GJQsqaUBKTNV-1" source="NVvjuVTjwXFd6pgVgbkl-29" target="NVvjuVTjwXFd6pgVgbkl-114">
          <mxGeometry relative="1" as="geometry" />
        </mxCell>
        <mxCell id="NVvjuVTjwXFd6pgVgbkl-29" value="CsvParser" style="swimlane;fontStyle=1;align=center;verticalAlign=top;childLayout=stackLayout;horizontal=1;startSize=26;horizontalStack=0;resizeParent=1;resizeParentMax=0;resizeLast=0;collapsible=1;marginBottom=0;whiteSpace=wrap;html=1;fontFamily=Helvetica;fontSize=11;fontColor=default;labelBackgroundColor=default;" vertex="1" parent="WIyWlLk6GJQsqaUBKTNV-1">
          <mxGeometry x="385" y="-470" width="160" height="52" as="geometry" />
        </mxCell>
        <mxCell id="NVvjuVTjwXFd6pgVgbkl-32" value="parse()" style="text;strokeColor=none;fillColor=none;align=left;verticalAlign=top;spacingLeft=4;spacingRight=4;overflow=hidden;rotatable=0;points=[[0,0.5],[1,0.5]];portConstraint=eastwest;whiteSpace=wrap;html=1;fontFamily=Helvetica;fontSize=11;fontColor=default;labelBackgroundColor=default;" vertex="1" parent="NVvjuVTjwXFd6pgVgbkl-29">
          <mxGeometry y="26" width="160" height="26" as="geometry" />
        </mxCell>
        <mxCell id="NVvjuVTjwXFd6pgVgbkl-33" value="Parser" style="swimlane;fontStyle=1;align=center;verticalAlign=top;childLayout=stackLayout;horizontal=1;startSize=26;horizontalStack=0;resizeParent=1;resizeParentMax=0;resizeLast=0;collapsible=1;marginBottom=0;whiteSpace=wrap;html=1;fontFamily=Helvetica;fontSize=11;fontColor=default;labelBackgroundColor=default;" vertex="1" parent="WIyWlLk6GJQsqaUBKTNV-1">
          <mxGeometry x="385" y="-550" width="160" height="34" as="geometry" />
        </mxCell>
        <mxCell id="NVvjuVTjwXFd6pgVgbkl-35" value="" style="line;strokeWidth=1;fillColor=none;align=left;verticalAlign=middle;spacingTop=-1;spacingLeft=3;spacingRight=3;rotatable=0;labelPosition=right;points=[];portConstraint=eastwest;strokeColor=inherit;fontFamily=Helvetica;fontSize=11;fontColor=default;labelBackgroundColor=default;" vertex="1" parent="NVvjuVTjwXFd6pgVgbkl-33">
          <mxGeometry y="26" width="160" height="8" as="geometry" />
        </mxCell>
        <mxCell id="NVvjuVTjwXFd6pgVgbkl-39" value="&lt;div&gt;CsvExporter&lt;/div&gt;" style="swimlane;fontStyle=1;align=center;verticalAlign=top;childLayout=stackLayout;horizontal=1;startSize=26;horizontalStack=0;resizeParent=1;resizeParentMax=0;resizeLast=0;collapsible=1;marginBottom=0;whiteSpace=wrap;html=1;fontFamily=Helvetica;fontSize=11;fontColor=default;labelBackgroundColor=default;" vertex="1" parent="WIyWlLk6GJQsqaUBKTNV-1">
          <mxGeometry x="700" y="-470" width="160" height="232" as="geometry" />
        </mxCell>
        <mxCell id="NVvjuVTjwXFd6pgVgbkl-40" value="&lt;div&gt;header&lt;/div&gt;&lt;div&gt;solutionHeader1&lt;/div&gt;&lt;div&gt;solutionHeader2&lt;br&gt;&lt;/div&gt;" style="text;strokeColor=none;fillColor=none;align=left;verticalAlign=top;spacingLeft=4;spacingRight=4;overflow=hidden;rotatable=0;points=[[0,0.5],[1,0.5]];portConstraint=eastwest;whiteSpace=wrap;html=1;fontFamily=Helvetica;fontSize=11;fontColor=default;labelBackgroundColor=default;" vertex="1" parent="NVvjuVTjwXFd6pgVgbkl-39">
          <mxGeometry y="26" width="160" height="54" as="geometry" />
        </mxCell>
        <mxCell id="NVvjuVTjwXFd6pgVgbkl-41" value="" style="line;strokeWidth=1;fillColor=none;align=left;verticalAlign=middle;spacingTop=-1;spacingLeft=3;spacingRight=3;rotatable=0;labelPosition=right;points=[];portConstraint=eastwest;strokeColor=inherit;fontFamily=Helvetica;fontSize=11;fontColor=default;labelBackgroundColor=default;" vertex="1" parent="NVvjuVTjwXFd6pgVgbkl-39">
          <mxGeometry y="80" width="160" height="8" as="geometry" />
        </mxCell>
        <mxCell id="NVvjuVTjwXFd6pgVgbkl-174" value="&lt;div&gt;exportTemplate()&lt;/div&gt;&lt;div&gt;saveTable()&lt;/div&gt;&lt;div&gt;writeLine()&lt;/div&gt;&lt;div&gt;saveSolution()&lt;br&gt;&lt;/div&gt;" style="text;strokeColor=none;fillColor=none;align=left;verticalAlign=top;spacingLeft=4;spacingRight=4;overflow=hidden;rotatable=0;points=[[0,0.5],[1,0.5]];portConstraint=eastwest;whiteSpace=wrap;html=1;fontFamily=Helvetica;fontSize=11;fontColor=default;labelBackgroundColor=default;" vertex="1" parent="NVvjuVTjwXFd6pgVgbkl-39">
          <mxGeometry y="88" width="160" height="72" as="geometry" />
        </mxCell>
        <mxCell id="NVvjuVTjwXFd6pgVgbkl-42" value="&lt;div&gt;exportTemplate()&lt;/div&gt;&lt;div&gt;saveTable()&lt;/div&gt;&lt;div&gt;writeLine()&lt;/div&gt;&lt;div&gt;saveSolution()&lt;br&gt;&lt;/div&gt;" style="text;strokeColor=none;fillColor=none;align=left;verticalAlign=top;spacingLeft=4;spacingRight=4;overflow=hidden;rotatable=0;points=[[0,0.5],[1,0.5]];portConstraint=eastwest;whiteSpace=wrap;html=1;fontFamily=Helvetica;fontSize=11;fontColor=default;labelBackgroundColor=default;" vertex="1" parent="NVvjuVTjwXFd6pgVgbkl-39">
          <mxGeometry y="160" width="160" height="72" as="geometry" />
        </mxCell>
        <mxCell id="NVvjuVTjwXFd6pgVgbkl-183" style="edgeStyle=orthogonalEdgeStyle;rounded=0;orthogonalLoop=1;jettySize=auto;html=1;dashed=1;dashPattern=8 8;strokeColor=default;align=center;verticalAlign=middle;fontFamily=Helvetica;fontSize=11;fontColor=default;labelBackgroundColor=default;endArrow=open;endFill=0;" edge="1" parent="WIyWlLk6GJQsqaUBKTNV-1" source="NVvjuVTjwXFd6pgVgbkl-46" target="C9QC6dtbuInkQibl6JLa-28">
          <mxGeometry relative="1" as="geometry" />
        </mxCell>
        <mxCell id="NVvjuVTjwXFd6pgVgbkl-46" value="Locator" style="swimlane;fontStyle=1;align=center;verticalAlign=top;childLayout=stackLayout;horizontal=1;startSize=26;horizontalStack=0;resizeParent=1;resizeParentMax=0;resizeLast=0;collapsible=1;marginBottom=0;whiteSpace=wrap;html=1;fontFamily=Helvetica;fontSize=11;fontColor=default;labelBackgroundColor=default;" vertex="1" parent="WIyWlLk6GJQsqaUBKTNV-1">
          <mxGeometry x="460" y="-210" width="160" height="140" as="geometry" />
        </mxCell>
        <mxCell id="NVvjuVTjwXFd6pgVgbkl-49" value="&lt;div&gt;findOptimalPositions()&lt;/div&gt;&lt;div&gt;relocateOccured()&lt;/div&gt;&lt;div&gt;memorizeLastCoordinates()&lt;/div&gt;&lt;div&gt;determinePseudoFocus()&lt;/div&gt;&lt;div&gt;allocateClosestLocation()&lt;/div&gt;&lt;div&gt;clearAssignedLocations()&lt;/div&gt;&lt;div&gt;getWeight()&lt;br&gt;&lt;/div&gt;" style="text;strokeColor=none;fillColor=none;align=left;verticalAlign=top;spacingLeft=4;spacingRight=4;overflow=hidden;rotatable=0;points=[[0,0.5],[1,0.5]];portConstraint=eastwest;whiteSpace=wrap;html=1;fontFamily=Helvetica;fontSize=11;fontColor=default;labelBackgroundColor=default;" vertex="1" parent="NVvjuVTjwXFd6pgVgbkl-46">
          <mxGeometry y="26" width="160" height="114" as="geometry" />
        </mxCell>
        <mxCell id="NVvjuVTjwXFd6pgVgbkl-178" style="edgeStyle=orthogonalEdgeStyle;rounded=0;orthogonalLoop=1;jettySize=auto;html=1;dashed=1;dashPattern=8 8;strokeColor=default;align=center;verticalAlign=middle;fontFamily=Helvetica;fontSize=11;fontColor=default;labelBackgroundColor=default;endArrow=open;endFill=0;" edge="1" parent="WIyWlLk6GJQsqaUBKTNV-1" source="NVvjuVTjwXFd6pgVgbkl-51" target="NVvjuVTjwXFd6pgVgbkl-55">
          <mxGeometry relative="1" as="geometry" />
        </mxCell>
        <mxCell id="NVvjuVTjwXFd6pgVgbkl-51" value="PreDistributor" style="swimlane;fontStyle=1;align=center;verticalAlign=top;childLayout=stackLayout;horizontal=1;startSize=26;horizontalStack=0;resizeParent=1;resizeParentMax=0;resizeLast=0;collapsible=1;marginBottom=0;whiteSpace=wrap;html=1;fontFamily=Helvetica;fontSize=11;fontColor=default;labelBackgroundColor=default;" vertex="1" parent="WIyWlLk6GJQsqaUBKTNV-1">
          <mxGeometry x="690" y="-112" width="200" height="80" as="geometry" />
        </mxCell>
        <mxCell id="NVvjuVTjwXFd6pgVgbkl-54" value="&lt;div&gt;determinePreDistribution()&lt;/div&gt;&lt;div&gt;getHelicopterAssignmentsPerSector()&lt;/div&gt;&lt;div&gt;generateSectorAndAssignLocations()&lt;/div&gt;" style="text;strokeColor=none;fillColor=none;align=left;verticalAlign=top;spacingLeft=4;spacingRight=4;overflow=hidden;rotatable=0;points=[[0,0.5],[1,0.5]];portConstraint=eastwest;whiteSpace=wrap;html=1;fontFamily=Helvetica;fontSize=11;fontColor=default;labelBackgroundColor=default;" vertex="1" parent="NVvjuVTjwXFd6pgVgbkl-51">
          <mxGeometry y="26" width="200" height="54" as="geometry" />
        </mxCell>
        <mxCell id="NVvjuVTjwXFd6pgVgbkl-55" value="CalculationUtils" style="swimlane;fontStyle=1;align=center;verticalAlign=top;childLayout=stackLayout;horizontal=1;startSize=26;horizontalStack=0;resizeParent=1;resizeParentMax=0;resizeLast=0;collapsible=1;marginBottom=0;whiteSpace=wrap;html=1;fontFamily=Helvetica;fontSize=11;fontColor=default;labelBackgroundColor=default;" vertex="1" parent="WIyWlLk6GJQsqaUBKTNV-1">
          <mxGeometry x="710" y="8" width="160" height="80" as="geometry" />
        </mxCell>
        <mxCell id="NVvjuVTjwXFd6pgVgbkl-58" value="&lt;div&gt;getRandomLocations()&lt;/div&gt;&lt;div&gt;accumulateTotalOfAccidents()&lt;/div&gt;&lt;div&gt;getAccidentsMax()&lt;br&gt;&lt;/div&gt;" style="text;strokeColor=none;fillColor=none;align=left;verticalAlign=top;spacingLeft=4;spacingRight=4;overflow=hidden;rotatable=0;points=[[0,0.5],[1,0.5]];portConstraint=eastwest;whiteSpace=wrap;html=1;fontFamily=Helvetica;fontSize=11;fontColor=default;labelBackgroundColor=default;" vertex="1" parent="NVvjuVTjwXFd6pgVgbkl-55">
          <mxGeometry y="26" width="160" height="54" as="geometry" />
        </mxCell>
        <mxCell id="NVvjuVTjwXFd6pgVgbkl-60" value="&lt;div&gt;Euclid&lt;/div&gt;" style="swimlane;fontStyle=1;align=center;verticalAlign=top;childLayout=stackLayout;horizontal=1;startSize=26;horizontalStack=0;resizeParent=1;resizeParentMax=0;resizeLast=0;collapsible=1;marginBottom=0;whiteSpace=wrap;html=1;fontFamily=Helvetica;fontSize=11;fontColor=default;labelBackgroundColor=default;" vertex="1" parent="WIyWlLk6GJQsqaUBKTNV-1">
          <mxGeometry x="690" y="-202" width="160" height="52" as="geometry" />
        </mxCell>
        <mxCell id="NVvjuVTjwXFd6pgVgbkl-63" value="calculateDistance()" style="text;strokeColor=none;fillColor=none;align=left;verticalAlign=top;spacingLeft=4;spacingRight=4;overflow=hidden;rotatable=0;points=[[0,0.5],[1,0.5]];portConstraint=eastwest;whiteSpace=wrap;html=1;fontFamily=Helvetica;fontSize=11;fontColor=default;labelBackgroundColor=default;" vertex="1" parent="NVvjuVTjwXFd6pgVgbkl-60">
          <mxGeometry y="26" width="160" height="26" as="geometry" />
        </mxCell>
        <mxCell id="NVvjuVTjwXFd6pgVgbkl-66" value="TableDataMapper" style="swimlane;fontStyle=1;align=center;verticalAlign=top;childLayout=stackLayout;horizontal=1;startSize=26;horizontalStack=0;resizeParent=1;resizeParentMax=0;resizeLast=0;collapsible=1;marginBottom=0;whiteSpace=wrap;html=1;fontFamily=Helvetica;fontSize=11;fontColor=default;labelBackgroundColor=default;" vertex="1" parent="WIyWlLk6GJQsqaUBKTNV-1">
          <mxGeometry x="-90" y="-538" width="160" height="130" as="geometry" />
        </mxCell>
        <mxCell id="NVvjuVTjwXFd6pgVgbkl-67" value="columnIdentifiers" style="text;strokeColor=none;fillColor=none;align=left;verticalAlign=top;spacingLeft=4;spacingRight=4;overflow=hidden;rotatable=0;points=[[0,0.5],[1,0.5]];portConstraint=eastwest;whiteSpace=wrap;html=1;fontFamily=Helvetica;fontSize=11;fontColor=default;labelBackgroundColor=default;" vertex="1" parent="NVvjuVTjwXFd6pgVgbkl-66">
          <mxGeometry y="26" width="160" height="26" as="geometry" />
        </mxCell>
        <mxCell id="NVvjuVTjwXFd6pgVgbkl-68" value="" style="line;strokeWidth=1;fillColor=none;align=left;verticalAlign=middle;spacingTop=-1;spacingLeft=3;spacingRight=3;rotatable=0;labelPosition=right;points=[];portConstraint=eastwest;strokeColor=inherit;fontFamily=Helvetica;fontSize=11;fontColor=default;labelBackgroundColor=default;" vertex="1" parent="NVvjuVTjwXFd6pgVgbkl-66">
          <mxGeometry y="52" width="160" height="8" as="geometry" />
        </mxCell>
        <mxCell id="NVvjuVTjwXFd6pgVgbkl-69" value="&lt;div&gt;stringListToTableModel()&lt;/div&gt;&lt;div&gt;vectorToStringList()&lt;/div&gt;&lt;div&gt;extractColumnIdentifiers()&lt;/div&gt;&lt;div&gt;extractTextFieldContent()&lt;br&gt;&lt;/div&gt;" style="text;strokeColor=none;fillColor=none;align=left;verticalAlign=top;spacingLeft=4;spacingRight=4;overflow=hidden;rotatable=0;points=[[0,0.5],[1,0.5]];portConstraint=eastwest;whiteSpace=wrap;html=1;fontFamily=Helvetica;fontSize=11;fontColor=default;labelBackgroundColor=default;" vertex="1" parent="NVvjuVTjwXFd6pgVgbkl-66">
          <mxGeometry y="60" width="160" height="70" as="geometry" />
        </mxCell>
        <mxCell id="NVvjuVTjwXFd6pgVgbkl-76" style="edgeStyle=orthogonalEdgeStyle;rounded=0;orthogonalLoop=1;jettySize=auto;html=1;strokeColor=default;align=center;verticalAlign=middle;fontFamily=Helvetica;fontSize=11;fontColor=default;labelBackgroundColor=default;endArrow=open;endFill=0;" edge="1" parent="WIyWlLk6GJQsqaUBKTNV-1" source="NVvjuVTjwXFd6pgVgbkl-71" target="C9QC6dtbuInkQibl6JLa-24">
          <mxGeometry relative="1" as="geometry" />
        </mxCell>
        <mxCell id="NVvjuVTjwXFd6pgVgbkl-71" value="&lt;div&gt;CoordinateSystem&lt;/div&gt;" style="swimlane;fontStyle=1;align=center;verticalAlign=top;childLayout=stackLayout;horizontal=1;startSize=26;horizontalStack=0;resizeParent=1;resizeParentMax=0;resizeLast=0;collapsible=1;marginBottom=0;whiteSpace=wrap;html=1;fontFamily=Helvetica;fontSize=11;fontColor=default;labelBackgroundColor=default;" vertex="1" parent="WIyWlLk6GJQsqaUBKTNV-1">
          <mxGeometry x="100" y="440" width="160" height="154" as="geometry" />
        </mxCell>
        <mxCell id="NVvjuVTjwXFd6pgVgbkl-72" value="&lt;div&gt;x_Axis&lt;/div&gt;&lt;div&gt;y_Axis&lt;/div&gt;&lt;div&gt;parentWidth&lt;/div&gt;&lt;div&gt;parentHeight&lt;/div&gt;&lt;div&gt;borderSpacing&lt;/div&gt;&lt;div&gt;coordinateSystem&lt;br&gt;&lt;/div&gt;" style="text;strokeColor=none;fillColor=none;align=left;verticalAlign=top;spacingLeft=4;spacingRight=4;overflow=hidden;rotatable=0;points=[[0,0.5],[1,0.5]];portConstraint=eastwest;whiteSpace=wrap;html=1;fontFamily=Helvetica;fontSize=11;fontColor=default;labelBackgroundColor=default;" vertex="1" parent="NVvjuVTjwXFd6pgVgbkl-71">
          <mxGeometry y="26" width="160" height="94" as="geometry" />
        </mxCell>
        <mxCell id="NVvjuVTjwXFd6pgVgbkl-73" value="" style="line;strokeWidth=1;fillColor=none;align=left;verticalAlign=middle;spacingTop=-1;spacingLeft=3;spacingRight=3;rotatable=0;labelPosition=right;points=[];portConstraint=eastwest;strokeColor=inherit;fontFamily=Helvetica;fontSize=11;fontColor=default;labelBackgroundColor=default;" vertex="1" parent="NVvjuVTjwXFd6pgVgbkl-71">
          <mxGeometry y="120" width="160" height="8" as="geometry" />
        </mxCell>
        <mxCell id="NVvjuVTjwXFd6pgVgbkl-74" value="&lt;div&gt;getInstance()&lt;/div&gt;" style="text;strokeColor=none;fillColor=none;align=left;verticalAlign=top;spacingLeft=4;spacingRight=4;overflow=hidden;rotatable=0;points=[[0,0.5],[1,0.5]];portConstraint=eastwest;whiteSpace=wrap;html=1;fontFamily=Helvetica;fontSize=11;fontColor=default;labelBackgroundColor=default;" vertex="1" parent="NVvjuVTjwXFd6pgVgbkl-71">
          <mxGeometry y="128" width="160" height="26" as="geometry" />
        </mxCell>
        <mxCell id="NVvjuVTjwXFd6pgVgbkl-85" style="edgeStyle=orthogonalEdgeStyle;rounded=0;orthogonalLoop=1;jettySize=auto;html=1;strokeColor=default;align=center;verticalAlign=middle;fontFamily=Helvetica;fontSize=11;fontColor=default;labelBackgroundColor=default;endArrow=open;endFill=0;" edge="1" parent="WIyWlLk6GJQsqaUBKTNV-1" source="NVvjuVTjwXFd6pgVgbkl-80" target="NVvjuVTjwXFd6pgVgbkl-71">
          <mxGeometry relative="1" as="geometry" />
        </mxCell>
        <mxCell id="NVvjuVTjwXFd6pgVgbkl-104" style="edgeStyle=orthogonalEdgeStyle;rounded=0;orthogonalLoop=1;jettySize=auto;html=1;strokeColor=default;align=center;verticalAlign=middle;fontFamily=Helvetica;fontSize=11;fontColor=default;labelBackgroundColor=default;endArrow=block;endFill=1;" edge="1" parent="WIyWlLk6GJQsqaUBKTNV-1" source="NVvjuVTjwXFd6pgVgbkl-80" target="jCvs58Pun3LBgpKlKiIc-4">
          <mxGeometry relative="1" as="geometry">
            <Array as="points">
              <mxPoint x="430" y="240" />
            </Array>
          </mxGeometry>
        </mxCell>
        <mxCell id="NVvjuVTjwXFd6pgVgbkl-161" style="edgeStyle=orthogonalEdgeStyle;rounded=0;orthogonalLoop=1;jettySize=auto;html=1;strokeColor=default;align=center;verticalAlign=middle;fontFamily=Helvetica;fontSize=11;fontColor=default;labelBackgroundColor=default;endArrow=open;endFill=0;" edge="1" parent="WIyWlLk6GJQsqaUBKTNV-1" source="NVvjuVTjwXFd6pgVgbkl-80" target="C9QC6dtbuInkQibl6JLa-15">
          <mxGeometry relative="1" as="geometry">
            <Array as="points">
              <mxPoint x="160" y="-41" />
            </Array>
          </mxGeometry>
        </mxCell>
        <mxCell id="NVvjuVTjwXFd6pgVgbkl-162" style="edgeStyle=orthogonalEdgeStyle;rounded=0;orthogonalLoop=1;jettySize=auto;html=1;strokeColor=default;align=center;verticalAlign=middle;fontFamily=Helvetica;fontSize=11;fontColor=default;labelBackgroundColor=default;endArrow=open;endFill=0;" edge="1" parent="WIyWlLk6GJQsqaUBKTNV-1" source="NVvjuVTjwXFd6pgVgbkl-80" target="C9QC6dtbuInkQibl6JLa-17">
          <mxGeometry relative="1" as="geometry">
            <Array as="points">
              <mxPoint x="140" y="105" />
            </Array>
          </mxGeometry>
        </mxCell>
        <mxCell id="NVvjuVTjwXFd6pgVgbkl-80" value="DrawPane" style="swimlane;fontStyle=1;align=center;verticalAlign=top;childLayout=stackLayout;horizontal=1;startSize=26;horizontalStack=0;resizeParent=1;resizeParentMax=0;resizeLast=0;collapsible=1;marginBottom=0;whiteSpace=wrap;html=1;fontFamily=Helvetica;fontSize=11;fontColor=default;labelBackgroundColor=default;" vertex="1" parent="WIyWlLk6GJQsqaUBKTNV-1">
          <mxGeometry x="100" y="182" width="160" height="198" as="geometry" />
        </mxCell>
        <mxCell id="NVvjuVTjwXFd6pgVgbkl-81" value="&lt;div&gt;helicopterList&lt;/div&gt;&lt;div&gt;locationList&lt;br&gt;&lt;/div&gt;&lt;div&gt;coordinateSystem&lt;br&gt;&lt;/div&gt;" style="text;strokeColor=none;fillColor=none;align=left;verticalAlign=top;spacingLeft=4;spacingRight=4;overflow=hidden;rotatable=0;points=[[0,0.5],[1,0.5]];portConstraint=eastwest;whiteSpace=wrap;html=1;fontFamily=Helvetica;fontSize=11;fontColor=default;labelBackgroundColor=default;" vertex="1" parent="NVvjuVTjwXFd6pgVgbkl-80">
          <mxGeometry y="26" width="160" height="54" as="geometry" />
        </mxCell>
        <mxCell id="NVvjuVTjwXFd6pgVgbkl-82" value="" style="line;strokeWidth=1;fillColor=none;align=left;verticalAlign=middle;spacingTop=-1;spacingLeft=3;spacingRight=3;rotatable=0;labelPosition=right;points=[];portConstraint=eastwest;strokeColor=inherit;fontFamily=Helvetica;fontSize=11;fontColor=default;labelBackgroundColor=default;" vertex="1" parent="NVvjuVTjwXFd6pgVgbkl-80">
          <mxGeometry y="80" width="160" height="8" as="geometry" />
        </mxCell>
        <mxCell id="NVvjuVTjwXFd6pgVgbkl-83" value="&lt;div&gt;paintComponent()&lt;/div&gt;&lt;div&gt;drawHelicoperPositions()&lt;/div&gt;&lt;div&gt;drawLocations()&lt;/div&gt;&lt;div&gt;getCoordinates()&lt;/div&gt;&lt;div&gt;getAccidentColor()&lt;/div&gt;&lt;div&gt;drawAxes()&lt;/div&gt;&lt;div&gt;drawColoredAccidentScale()&lt;br&gt;&lt;/div&gt;" style="text;strokeColor=none;fillColor=none;align=left;verticalAlign=top;spacingLeft=4;spacingRight=4;overflow=hidden;rotatable=0;points=[[0,0.5],[1,0.5]];portConstraint=eastwest;whiteSpace=wrap;html=1;fontFamily=Helvetica;fontSize=11;fontColor=default;labelBackgroundColor=default;" vertex="1" parent="NVvjuVTjwXFd6pgVgbkl-80">
          <mxGeometry y="88" width="160" height="110" as="geometry" />
        </mxCell>
        <mxCell id="NVvjuVTjwXFd6pgVgbkl-105" style="edgeStyle=orthogonalEdgeStyle;rounded=0;orthogonalLoop=1;jettySize=auto;html=1;strokeColor=default;align=center;verticalAlign=middle;fontFamily=Helvetica;fontSize=11;fontColor=default;labelBackgroundColor=default;endArrow=block;endFill=1;" edge="1" parent="WIyWlLk6GJQsqaUBKTNV-1" source="NVvjuVTjwXFd6pgVgbkl-89" target="jCvs58Pun3LBgpKlKiIc-4">
          <mxGeometry relative="1" as="geometry" />
        </mxCell>
        <mxCell id="NVvjuVTjwXFd6pgVgbkl-108" style="edgeStyle=orthogonalEdgeStyle;rounded=0;orthogonalLoop=1;jettySize=auto;html=1;strokeColor=default;align=center;verticalAlign=middle;fontFamily=Helvetica;fontSize=11;fontColor=default;labelBackgroundColor=default;endArrow=open;endFill=0;" edge="1" parent="WIyWlLk6GJQsqaUBKTNV-1" source="NVvjuVTjwXFd6pgVgbkl-89" target="NVvjuVTjwXFd6pgVgbkl-93">
          <mxGeometry relative="1" as="geometry" />
        </mxCell>
        <mxCell id="NVvjuVTjwXFd6pgVgbkl-89" value="InputPane" style="swimlane;fontStyle=1;align=center;verticalAlign=top;childLayout=stackLayout;horizontal=1;startSize=26;horizontalStack=0;resizeParent=1;resizeParentMax=0;resizeLast=0;collapsible=1;marginBottom=0;whiteSpace=wrap;html=1;fontFamily=Helvetica;fontSize=11;fontColor=default;labelBackgroundColor=default;" vertex="1" parent="WIyWlLk6GJQsqaUBKTNV-1">
          <mxGeometry x="574" y="142" width="160" height="140" as="geometry" />
        </mxCell>
        <mxCell id="NVvjuVTjwXFd6pgVgbkl-90" value="&lt;div&gt;txtHeliNumber&lt;/div&gt;&lt;div&gt;txtHeliSpeed&lt;/div&gt;&lt;div&gt;lblErrorMsg&lt;/div&gt;&lt;div&gt;dataPanel&lt;br&gt;&lt;/div&gt;" style="text;strokeColor=none;fillColor=none;align=left;verticalAlign=top;spacingLeft=4;spacingRight=4;overflow=hidden;rotatable=0;points=[[0,0.5],[1,0.5]];portConstraint=eastwest;whiteSpace=wrap;html=1;fontFamily=Helvetica;fontSize=11;fontColor=default;labelBackgroundColor=default;" vertex="1" parent="NVvjuVTjwXFd6pgVgbkl-89">
          <mxGeometry y="26" width="160" height="64" as="geometry" />
        </mxCell>
        <mxCell id="NVvjuVTjwXFd6pgVgbkl-91" value="" style="line;strokeWidth=1;fillColor=none;align=left;verticalAlign=middle;spacingTop=-1;spacingLeft=3;spacingRight=3;rotatable=0;labelPosition=right;points=[];portConstraint=eastwest;strokeColor=inherit;fontFamily=Helvetica;fontSize=11;fontColor=default;labelBackgroundColor=default;" vertex="1" parent="NVvjuVTjwXFd6pgVgbkl-89">
          <mxGeometry y="90" width="160" height="8" as="geometry" />
        </mxCell>
        <mxCell id="NVvjuVTjwXFd6pgVgbkl-92" value="&lt;div&gt;showErrorMsg()&lt;/div&gt;&lt;div&gt;hideErrorMsg()&lt;/div&gt;" style="text;strokeColor=none;fillColor=none;align=left;verticalAlign=top;spacingLeft=4;spacingRight=4;overflow=hidden;rotatable=0;points=[[0,0.5],[1,0.5]];portConstraint=eastwest;whiteSpace=wrap;html=1;fontFamily=Helvetica;fontSize=11;fontColor=default;labelBackgroundColor=default;" vertex="1" parent="NVvjuVTjwXFd6pgVgbkl-89">
          <mxGeometry y="98" width="160" height="42" as="geometry" />
        </mxCell>
        <mxCell id="NVvjuVTjwXFd6pgVgbkl-113" style="edgeStyle=orthogonalEdgeStyle;rounded=0;orthogonalLoop=1;jettySize=auto;html=1;strokeColor=default;align=center;verticalAlign=middle;fontFamily=Helvetica;fontSize=11;fontColor=default;labelBackgroundColor=default;endArrow=open;endFill=0;" edge="1" parent="WIyWlLk6GJQsqaUBKTNV-1" source="NVvjuVTjwXFd6pgVgbkl-93" target="NVvjuVTjwXFd6pgVgbkl-109">
          <mxGeometry relative="1" as="geometry" />
        </mxCell>
        <mxCell id="NVvjuVTjwXFd6pgVgbkl-120" style="edgeStyle=orthogonalEdgeStyle;rounded=0;orthogonalLoop=1;jettySize=auto;html=1;strokeColor=default;align=center;verticalAlign=middle;fontFamily=Helvetica;fontSize=11;fontColor=default;labelBackgroundColor=default;endArrow=block;endFill=1;" edge="1" parent="WIyWlLk6GJQsqaUBKTNV-1" source="NVvjuVTjwXFd6pgVgbkl-93" target="jCvs58Pun3LBgpKlKiIc-4">
          <mxGeometry relative="1" as="geometry">
            <Array as="points">
              <mxPoint x="600" y="310" />
              <mxPoint x="430" y="310" />
            </Array>
          </mxGeometry>
        </mxCell>
        <mxCell id="NVvjuVTjwXFd6pgVgbkl-93" value="DataPanel" style="swimlane;fontStyle=1;align=center;verticalAlign=top;childLayout=stackLayout;horizontal=1;startSize=26;horizontalStack=0;resizeParent=1;resizeParentMax=0;resizeLast=0;collapsible=1;marginBottom=0;whiteSpace=wrap;html=1;fontFamily=Helvetica;fontSize=11;fontColor=default;labelBackgroundColor=default;" vertex="1" parent="WIyWlLk6GJQsqaUBKTNV-1">
          <mxGeometry x="574" y="370" width="160" height="52" as="geometry" />
        </mxCell>
        <mxCell id="NVvjuVTjwXFd6pgVgbkl-94" value="txtTupleInputs" style="text;strokeColor=none;fillColor=none;align=left;verticalAlign=top;spacingLeft=4;spacingRight=4;overflow=hidden;rotatable=0;points=[[0,0.5],[1,0.5]];portConstraint=eastwest;whiteSpace=wrap;html=1;fontFamily=Helvetica;fontSize=11;fontColor=default;labelBackgroundColor=default;" vertex="1" parent="NVvjuVTjwXFd6pgVgbkl-93">
          <mxGeometry y="26" width="160" height="26" as="geometry" />
        </mxCell>
        <mxCell id="NVvjuVTjwXFd6pgVgbkl-102" style="edgeStyle=orthogonalEdgeStyle;rounded=0;orthogonalLoop=1;jettySize=auto;html=1;strokeColor=default;align=center;verticalAlign=middle;fontFamily=Helvetica;fontSize=11;fontColor=default;labelBackgroundColor=default;endArrow=block;endFill=1;" edge="1" parent="WIyWlLk6GJQsqaUBKTNV-1" source="NVvjuVTjwXFd6pgVgbkl-97" target="jCvs58Pun3LBgpKlKiIc-4">
          <mxGeometry relative="1" as="geometry" />
        </mxCell>
        <mxCell id="NVvjuVTjwXFd6pgVgbkl-97" value="ControlPane" style="swimlane;fontStyle=1;align=center;verticalAlign=top;childLayout=stackLayout;horizontal=1;startSize=26;horizontalStack=0;resizeParent=1;resizeParentMax=0;resizeLast=0;collapsible=1;marginBottom=0;whiteSpace=wrap;html=1;fontFamily=Helvetica;fontSize=11;fontColor=default;labelBackgroundColor=default;" vertex="1" parent="WIyWlLk6GJQsqaUBKTNV-1">
          <mxGeometry x="430" y="50" width="160" height="52" as="geometry" />
        </mxCell>
        <mxCell id="NVvjuVTjwXFd6pgVgbkl-98" value="btnCalc" style="text;strokeColor=none;fillColor=none;align=left;verticalAlign=top;spacingLeft=4;spacingRight=4;overflow=hidden;rotatable=0;points=[[0,0.5],[1,0.5]];portConstraint=eastwest;whiteSpace=wrap;html=1;fontFamily=Helvetica;fontSize=11;fontColor=default;labelBackgroundColor=default;" vertex="1" parent="NVvjuVTjwXFd6pgVgbkl-97">
          <mxGeometry y="26" width="160" height="26" as="geometry" />
        </mxCell>
        <mxCell id="NVvjuVTjwXFd6pgVgbkl-107" style="edgeStyle=orthogonalEdgeStyle;rounded=0;orthogonalLoop=1;jettySize=auto;html=1;strokeColor=default;align=center;verticalAlign=middle;fontFamily=Helvetica;fontSize=11;fontColor=default;labelBackgroundColor=default;endArrow=open;endFill=0;" edge="1" parent="WIyWlLk6GJQsqaUBKTNV-1" source="NVvjuVTjwXFd6pgVgbkl-25" target="NVvjuVTjwXFd6pgVgbkl-89">
          <mxGeometry relative="1" as="geometry">
            <Array as="points">
              <mxPoint x="640" y="-38" />
            </Array>
          </mxGeometry>
        </mxCell>
        <mxCell id="NVvjuVTjwXFd6pgVgbkl-119" style="edgeStyle=orthogonalEdgeStyle;rounded=0;orthogonalLoop=1;jettySize=auto;html=1;strokeColor=default;align=center;verticalAlign=middle;fontFamily=Helvetica;fontSize=11;fontColor=default;labelBackgroundColor=default;endArrow=block;endFill=1;" edge="1" parent="WIyWlLk6GJQsqaUBKTNV-1" source="NVvjuVTjwXFd6pgVgbkl-109" target="jCvs58Pun3LBgpKlKiIc-4">
          <mxGeometry relative="1" as="geometry">
            <Array as="points">
              <mxPoint x="430" y="300" />
              <mxPoint x="430" y="300" />
            </Array>
          </mxGeometry>
        </mxCell>
        <mxCell id="NVvjuVTjwXFd6pgVgbkl-109" value="TablePanel" style="swimlane;fontStyle=1;align=center;verticalAlign=top;childLayout=stackLayout;horizontal=1;startSize=26;horizontalStack=0;resizeParent=1;resizeParentMax=0;resizeLast=0;collapsible=1;marginBottom=0;whiteSpace=wrap;html=1;fontFamily=Helvetica;fontSize=11;fontColor=default;labelBackgroundColor=default;" vertex="1" parent="WIyWlLk6GJQsqaUBKTNV-1">
          <mxGeometry x="360" y="329" width="160" height="134" as="geometry" />
        </mxCell>
        <mxCell id="NVvjuVTjwXFd6pgVgbkl-110" value="&lt;div&gt;tablePanel&lt;/div&gt;&lt;div&gt;table&lt;/div&gt;&lt;div&gt;editLock&lt;/div&gt;&lt;div&gt;row&lt;/div&gt;&lt;div&gt;col&lt;br&gt;&lt;/div&gt;" style="text;strokeColor=none;fillColor=none;align=left;verticalAlign=top;spacingLeft=4;spacingRight=4;overflow=hidden;rotatable=0;points=[[0,0.5],[1,0.5]];portConstraint=eastwest;whiteSpace=wrap;html=1;fontFamily=Helvetica;fontSize=11;fontColor=default;labelBackgroundColor=default;" vertex="1" parent="NVvjuVTjwXFd6pgVgbkl-109">
          <mxGeometry y="26" width="160" height="74" as="geometry" />
        </mxCell>
        <mxCell id="NVvjuVTjwXFd6pgVgbkl-111" value="" style="line;strokeWidth=1;fillColor=none;align=left;verticalAlign=middle;spacingTop=-1;spacingLeft=3;spacingRight=3;rotatable=0;labelPosition=right;points=[];portConstraint=eastwest;strokeColor=inherit;fontFamily=Helvetica;fontSize=11;fontColor=default;labelBackgroundColor=default;" vertex="1" parent="NVvjuVTjwXFd6pgVgbkl-109">
          <mxGeometry y="100" width="160" height="8" as="geometry" />
        </mxCell>
        <mxCell id="NVvjuVTjwXFd6pgVgbkl-112" value="getInstance()" style="text;strokeColor=none;fillColor=none;align=left;verticalAlign=top;spacingLeft=4;spacingRight=4;overflow=hidden;rotatable=0;points=[[0,0.5],[1,0.5]];portConstraint=eastwest;whiteSpace=wrap;html=1;fontFamily=Helvetica;fontSize=11;fontColor=default;labelBackgroundColor=default;" vertex="1" parent="NVvjuVTjwXFd6pgVgbkl-109">
          <mxGeometry y="108" width="160" height="26" as="geometry" />
        </mxCell>
        <mxCell id="NVvjuVTjwXFd6pgVgbkl-114" value="ParserUtils" style="swimlane;fontStyle=1;align=center;verticalAlign=top;childLayout=stackLayout;horizontal=1;startSize=26;horizontalStack=0;resizeParent=1;resizeParentMax=0;resizeLast=0;collapsible=1;marginBottom=0;whiteSpace=wrap;html=1;fontFamily=Helvetica;fontSize=11;fontColor=default;labelBackgroundColor=default;" vertex="1" parent="WIyWlLk6GJQsqaUBKTNV-1">
          <mxGeometry x="574" y="-560" width="160" height="70" as="geometry" />
        </mxCell>
        <mxCell id="NVvjuVTjwXFd6pgVgbkl-117" value="&lt;div&gt;containsOnly()&lt;/div&gt;&lt;div&gt;isValideTuple()&lt;br&gt;&lt;/div&gt;" style="text;strokeColor=none;fillColor=none;align=left;verticalAlign=top;spacingLeft=4;spacingRight=4;overflow=hidden;rotatable=0;points=[[0,0.5],[1,0.5]];portConstraint=eastwest;whiteSpace=wrap;html=1;fontFamily=Helvetica;fontSize=11;fontColor=default;labelBackgroundColor=default;" vertex="1" parent="NVvjuVTjwXFd6pgVgbkl-114">
          <mxGeometry y="26" width="160" height="44" as="geometry" />
        </mxCell>
        <mxCell id="NVvjuVTjwXFd6pgVgbkl-121" value="&lt;div&gt;DataTable&lt;/div&gt;" style="swimlane;fontStyle=1;align=center;verticalAlign=top;childLayout=stackLayout;horizontal=1;startSize=26;horizontalStack=0;resizeParent=1;resizeParentMax=0;resizeLast=0;collapsible=1;marginBottom=0;whiteSpace=wrap;html=1;fontFamily=Helvetica;fontSize=11;fontColor=default;labelBackgroundColor=default;" vertex="1" parent="WIyWlLk6GJQsqaUBKTNV-1">
          <mxGeometry x="-300" y="-355" width="160" height="150" as="geometry" />
        </mxCell>
        <mxCell id="NVvjuVTjwXFd6pgVgbkl-122" value="&lt;div&gt;tableModel&lt;/div&gt;&lt;div&gt;tuples&lt;/div&gt;&lt;div&gt;columns&lt;/div&gt;&lt;div&gt;dataTable&lt;br&gt;&lt;/div&gt;" style="text;strokeColor=none;fillColor=none;align=left;verticalAlign=top;spacingLeft=4;spacingRight=4;overflow=hidden;rotatable=0;points=[[0,0.5],[1,0.5]];portConstraint=eastwest;whiteSpace=wrap;html=1;fontFamily=Helvetica;fontSize=11;fontColor=default;labelBackgroundColor=default;" vertex="1" parent="NVvjuVTjwXFd6pgVgbkl-121">
          <mxGeometry y="26" width="160" height="64" as="geometry" />
        </mxCell>
        <mxCell id="NVvjuVTjwXFd6pgVgbkl-123" value="" style="line;strokeWidth=1;fillColor=none;align=left;verticalAlign=middle;spacingTop=-1;spacingLeft=3;spacingRight=3;rotatable=0;labelPosition=right;points=[];portConstraint=eastwest;strokeColor=inherit;fontFamily=Helvetica;fontSize=11;fontColor=default;labelBackgroundColor=default;" vertex="1" parent="NVvjuVTjwXFd6pgVgbkl-121">
          <mxGeometry y="90" width="160" height="8" as="geometry" />
        </mxCell>
        <mxCell id="NVvjuVTjwXFd6pgVgbkl-124" value="&lt;div&gt;getInstance()&lt;/div&gt;&lt;div&gt;pushDataBase()&lt;/div&gt;&lt;div&gt;pullDataBase()&lt;br&gt;&lt;/div&gt;" style="text;strokeColor=none;fillColor=none;align=left;verticalAlign=top;spacingLeft=4;spacingRight=4;overflow=hidden;rotatable=0;points=[[0,0.5],[1,0.5]];portConstraint=eastwest;whiteSpace=wrap;html=1;fontFamily=Helvetica;fontSize=11;fontColor=default;labelBackgroundColor=default;" vertex="1" parent="NVvjuVTjwXFd6pgVgbkl-121">
          <mxGeometry y="98" width="160" height="52" as="geometry" />
        </mxCell>
        <mxCell id="NVvjuVTjwXFd6pgVgbkl-126" value="1" style="text;html=1;align=center;verticalAlign=middle;resizable=0;points=[];autosize=1;strokeColor=none;fillColor=none;fontFamily=Helvetica;fontSize=11;fontColor=default;labelBackgroundColor=default;" vertex="1" parent="WIyWlLk6GJQsqaUBKTNV-1">
          <mxGeometry x="345" y="-335" width="30" height="30" as="geometry" />
        </mxCell>
        <mxCell id="NVvjuVTjwXFd6pgVgbkl-127" value="1" style="text;html=1;align=center;verticalAlign=middle;resizable=0;points=[];autosize=1;strokeColor=none;fillColor=none;fontFamily=Helvetica;fontSize=11;fontColor=default;labelBackgroundColor=default;" vertex="1" parent="WIyWlLk6GJQsqaUBKTNV-1">
          <mxGeometry x="423" y="-423" width="30" height="30" as="geometry" />
        </mxCell>
        <mxCell id="NVvjuVTjwXFd6pgVgbkl-130" value="1" style="text;html=1;align=center;verticalAlign=middle;resizable=0;points=[];autosize=1;strokeColor=none;fillColor=none;fontFamily=Helvetica;fontSize=11;fontColor=default;labelBackgroundColor=default;" vertex="1" parent="WIyWlLk6GJQsqaUBKTNV-1">
          <mxGeometry x="262" y="-146" width="30" height="30" as="geometry" />
        </mxCell>
        <mxCell id="NVvjuVTjwXFd6pgVgbkl-132" value="1" style="text;html=1;align=center;verticalAlign=middle;resizable=0;points=[];autosize=1;strokeColor=none;fillColor=none;fontFamily=Helvetica;fontSize=11;fontColor=default;labelBackgroundColor=default;" vertex="1" parent="WIyWlLk6GJQsqaUBKTNV-1">
          <mxGeometry x="295" y="-112" width="30" height="30" as="geometry" />
        </mxCell>
        <mxCell id="NVvjuVTjwXFd6pgVgbkl-133" value="*" style="text;html=1;align=center;verticalAlign=middle;resizable=0;points=[];autosize=1;strokeColor=none;fillColor=none;fontFamily=Helvetica;fontSize=11;fontColor=default;labelBackgroundColor=default;" vertex="1" parent="WIyWlLk6GJQsqaUBKTNV-1">
          <mxGeometry x="63" y="-163" width="30" height="30" as="geometry" />
        </mxCell>
        <mxCell id="NVvjuVTjwXFd6pgVgbkl-134" value="1" style="text;html=1;align=center;verticalAlign=middle;resizable=0;points=[];autosize=1;strokeColor=none;fillColor=none;fontFamily=Helvetica;fontSize=11;fontColor=default;labelBackgroundColor=default;" vertex="1" parent="WIyWlLk6GJQsqaUBKTNV-1">
          <mxGeometry x="166" y="-245" width="30" height="30" as="geometry" />
        </mxCell>
        <mxCell id="NVvjuVTjwXFd6pgVgbkl-135" value="*" style="text;html=1;align=center;verticalAlign=middle;resizable=0;points=[];autosize=1;strokeColor=none;fillColor=none;fontFamily=Helvetica;fontSize=11;fontColor=default;labelBackgroundColor=default;" vertex="1" parent="WIyWlLk6GJQsqaUBKTNV-1">
          <mxGeometry x="-39" y="19" width="30" height="30" as="geometry" />
        </mxCell>
        <mxCell id="NVvjuVTjwXFd6pgVgbkl-136" value="1" style="text;html=1;align=center;verticalAlign=middle;resizable=0;points=[];autosize=1;strokeColor=none;fillColor=none;fontFamily=Helvetica;fontSize=11;fontColor=default;labelBackgroundColor=default;" vertex="1" parent="WIyWlLk6GJQsqaUBKTNV-1">
          <mxGeometry x="-40" y="-16" width="30" height="30" as="geometry" />
        </mxCell>
        <mxCell id="NVvjuVTjwXFd6pgVgbkl-137" value="*" style="text;html=1;align=center;verticalAlign=middle;resizable=0;points=[];autosize=1;strokeColor=none;fillColor=none;fontFamily=Helvetica;fontSize=11;fontColor=default;labelBackgroundColor=default;" vertex="1" parent="WIyWlLk6GJQsqaUBKTNV-1">
          <mxGeometry x="-165" y="-118" width="30" height="30" as="geometry" />
        </mxCell>
        <mxCell id="NVvjuVTjwXFd6pgVgbkl-138" value="1" style="text;html=1;align=center;verticalAlign=middle;resizable=0;points=[];autosize=1;strokeColor=none;fillColor=none;fontFamily=Helvetica;fontSize=11;fontColor=default;labelBackgroundColor=default;" vertex="1" parent="WIyWlLk6GJQsqaUBKTNV-1">
          <mxGeometry x="-298" y="-50" width="30" height="30" as="geometry" />
        </mxCell>
        <mxCell id="NVvjuVTjwXFd6pgVgbkl-139" value="1" style="text;html=1;align=center;verticalAlign=middle;resizable=0;points=[];autosize=1;strokeColor=none;fillColor=none;fontFamily=Helvetica;fontSize=11;fontColor=default;labelBackgroundColor=default;" vertex="1" parent="WIyWlLk6GJQsqaUBKTNV-1">
          <mxGeometry x="-299" y="48" width="30" height="30" as="geometry" />
        </mxCell>
        <mxCell id="NVvjuVTjwXFd6pgVgbkl-140" value="*" style="text;html=1;align=center;verticalAlign=middle;resizable=0;points=[];autosize=1;strokeColor=none;fillColor=none;fontFamily=Helvetica;fontSize=11;fontColor=default;labelBackgroundColor=default;" vertex="1" parent="WIyWlLk6GJQsqaUBKTNV-1">
          <mxGeometry x="-143" y="107" width="30" height="30" as="geometry" />
        </mxCell>
        <mxCell id="NVvjuVTjwXFd6pgVgbkl-141" value="1" style="text;html=1;align=center;verticalAlign=middle;resizable=0;points=[];autosize=1;strokeColor=none;fillColor=none;fontFamily=Helvetica;fontSize=11;fontColor=default;labelBackgroundColor=default;" vertex="1" parent="WIyWlLk6GJQsqaUBKTNV-1">
          <mxGeometry x="285" y="89" width="30" height="30" as="geometry" />
        </mxCell>
        <mxCell id="NVvjuVTjwXFd6pgVgbkl-142" value="1" style="text;html=1;align=center;verticalAlign=middle;resizable=0;points=[];autosize=1;strokeColor=none;fillColor=none;fontFamily=Helvetica;fontSize=11;fontColor=default;labelBackgroundColor=default;" vertex="1" parent="WIyWlLk6GJQsqaUBKTNV-1">
          <mxGeometry x="226" y="156" width="30" height="30" as="geometry" />
        </mxCell>
        <mxCell id="NVvjuVTjwXFd6pgVgbkl-143" value="1" style="text;html=1;align=center;verticalAlign=middle;resizable=0;points=[];autosize=1;strokeColor=none;fillColor=none;fontFamily=Helvetica;fontSize=11;fontColor=default;labelBackgroundColor=default;" vertex="1" parent="WIyWlLk6GJQsqaUBKTNV-1">
          <mxGeometry x="375" y="-22" width="30" height="30" as="geometry" />
        </mxCell>
        <mxCell id="NVvjuVTjwXFd6pgVgbkl-144" value="1" style="text;html=1;align=center;verticalAlign=middle;resizable=0;points=[];autosize=1;strokeColor=none;fillColor=none;fontFamily=Helvetica;fontSize=11;fontColor=default;labelBackgroundColor=default;" vertex="1" parent="WIyWlLk6GJQsqaUBKTNV-1">
          <mxGeometry x="405" y="48" width="30" height="30" as="geometry" />
        </mxCell>
        <mxCell id="NVvjuVTjwXFd6pgVgbkl-145" value="1" style="text;html=1;align=center;verticalAlign=middle;resizable=0;points=[];autosize=1;strokeColor=none;fillColor=none;fontFamily=Helvetica;fontSize=11;fontColor=default;labelBackgroundColor=default;" vertex="1" parent="WIyWlLk6GJQsqaUBKTNV-1">
          <mxGeometry x="373" y="-66" width="30" height="30" as="geometry" />
        </mxCell>
        <mxCell id="NVvjuVTjwXFd6pgVgbkl-146" value="1" style="text;html=1;align=center;verticalAlign=middle;resizable=0;points=[];autosize=1;strokeColor=none;fillColor=none;fontFamily=Helvetica;fontSize=11;fontColor=default;labelBackgroundColor=default;" vertex="1" parent="WIyWlLk6GJQsqaUBKTNV-1">
          <mxGeometry x="637" y="112" width="30" height="30" as="geometry" />
        </mxCell>
        <mxCell id="NVvjuVTjwXFd6pgVgbkl-147" value="1" style="text;html=1;align=center;verticalAlign=middle;resizable=0;points=[];autosize=1;strokeColor=none;fillColor=none;fontFamily=Helvetica;fontSize=11;fontColor=default;labelBackgroundColor=default;" vertex="1" parent="WIyWlLk6GJQsqaUBKTNV-1">
          <mxGeometry x="175" y="373" width="30" height="30" as="geometry" />
        </mxCell>
        <mxCell id="NVvjuVTjwXFd6pgVgbkl-148" value="1" style="text;html=1;align=center;verticalAlign=middle;resizable=0;points=[];autosize=1;strokeColor=none;fillColor=none;fontFamily=Helvetica;fontSize=11;fontColor=default;labelBackgroundColor=default;" vertex="1" parent="WIyWlLk6GJQsqaUBKTNV-1">
          <mxGeometry x="175" y="412" width="30" height="30" as="geometry" />
        </mxCell>
        <mxCell id="NVvjuVTjwXFd6pgVgbkl-150" value="1" style="text;html=1;align=center;verticalAlign=middle;resizable=0;points=[];autosize=1;strokeColor=none;fillColor=none;fontFamily=Helvetica;fontSize=11;fontColor=default;labelBackgroundColor=default;" vertex="1" parent="WIyWlLk6GJQsqaUBKTNV-1">
          <mxGeometry x="75" y="490" width="30" height="30" as="geometry" />
        </mxCell>
        <mxCell id="NVvjuVTjwXFd6pgVgbkl-151" value="2" style="text;html=1;align=center;verticalAlign=middle;resizable=0;points=[];autosize=1;strokeColor=none;fillColor=none;fontFamily=Helvetica;fontSize=11;fontColor=default;labelBackgroundColor=default;" vertex="1" parent="WIyWlLk6GJQsqaUBKTNV-1">
          <mxGeometry x="15" y="489" width="30" height="30" as="geometry" />
        </mxCell>
        <mxCell id="NVvjuVTjwXFd6pgVgbkl-152" value="1" style="text;html=1;align=center;verticalAlign=middle;resizable=0;points=[];autosize=1;strokeColor=none;fillColor=none;fontFamily=Helvetica;fontSize=11;fontColor=default;labelBackgroundColor=default;" vertex="1" parent="WIyWlLk6GJQsqaUBKTNV-1">
          <mxGeometry x="-62" y="419" width="30" height="30" as="geometry" />
        </mxCell>
        <mxCell id="NVvjuVTjwXFd6pgVgbkl-153" value="1" style="text;html=1;align=center;verticalAlign=middle;resizable=0;points=[];autosize=1;strokeColor=none;fillColor=none;fontFamily=Helvetica;fontSize=11;fontColor=default;labelBackgroundColor=default;" vertex="1" parent="WIyWlLk6GJQsqaUBKTNV-1">
          <mxGeometry x="-63" y="452" width="30" height="30" as="geometry" />
        </mxCell>
        <mxCell id="NVvjuVTjwXFd6pgVgbkl-157" value="1" style="text;html=1;align=center;verticalAlign=middle;resizable=0;points=[];autosize=1;strokeColor=none;fillColor=none;fontFamily=Helvetica;fontSize=11;fontColor=default;labelBackgroundColor=default;" vertex="1" parent="WIyWlLk6GJQsqaUBKTNV-1">
          <mxGeometry x="514" y="391" width="30" height="30" as="geometry" />
        </mxCell>
        <mxCell id="NVvjuVTjwXFd6pgVgbkl-158" value="1" style="text;html=1;align=center;verticalAlign=middle;resizable=0;points=[];autosize=1;strokeColor=none;fillColor=none;fontFamily=Helvetica;fontSize=11;fontColor=default;labelBackgroundColor=default;" vertex="1" parent="WIyWlLk6GJQsqaUBKTNV-1">
          <mxGeometry x="550" y="391" width="30" height="30" as="geometry" />
        </mxCell>
        <mxCell id="NVvjuVTjwXFd6pgVgbkl-159" value="1" style="text;html=1;align=center;verticalAlign=middle;resizable=0;points=[];autosize=1;strokeColor=none;fillColor=none;fontFamily=Helvetica;fontSize=11;fontColor=default;labelBackgroundColor=default;" vertex="1" parent="WIyWlLk6GJQsqaUBKTNV-1">
          <mxGeometry x="646" y="277" width="30" height="30" as="geometry" />
        </mxCell>
        <mxCell id="NVvjuVTjwXFd6pgVgbkl-160" value="1" style="text;html=1;align=center;verticalAlign=middle;resizable=0;points=[];autosize=1;strokeColor=none;fillColor=none;fontFamily=Helvetica;fontSize=11;fontColor=default;labelBackgroundColor=default;" vertex="1" parent="WIyWlLk6GJQsqaUBKTNV-1">
          <mxGeometry x="647" y="344" width="30" height="30" as="geometry" />
        </mxCell>
        <mxCell id="NVvjuVTjwXFd6pgVgbkl-163" value="*" style="text;html=1;align=center;verticalAlign=middle;resizable=0;points=[];autosize=1;strokeColor=none;fillColor=none;fontFamily=Helvetica;fontSize=11;fontColor=default;labelBackgroundColor=default;" vertex="1" parent="WIyWlLk6GJQsqaUBKTNV-1">
          <mxGeometry x="65" y="-42" width="30" height="30" as="geometry" />
        </mxCell>
        <mxCell id="NVvjuVTjwXFd6pgVgbkl-164" value="1" style="text;html=1;align=center;verticalAlign=middle;resizable=0;points=[];autosize=1;strokeColor=none;fillColor=none;fontFamily=Helvetica;fontSize=11;fontColor=default;labelBackgroundColor=default;" vertex="1" parent="WIyWlLk6GJQsqaUBKTNV-1">
          <mxGeometry x="158" y="155" width="30" height="30" as="geometry" />
        </mxCell>
        <mxCell id="NVvjuVTjwXFd6pgVgbkl-167" value="*" style="text;html=1;align=center;verticalAlign=middle;resizable=0;points=[];autosize=1;strokeColor=none;fillColor=none;fontFamily=Helvetica;fontSize=11;fontColor=default;labelBackgroundColor=default;" vertex="1" parent="WIyWlLk6GJQsqaUBKTNV-1">
          <mxGeometry x="43" y="100" width="30" height="30" as="geometry" />
        </mxCell>
        <mxCell id="NVvjuVTjwXFd6pgVgbkl-168" value="1" style="text;html=1;align=center;verticalAlign=middle;resizable=0;points=[];autosize=1;strokeColor=none;fillColor=none;fontFamily=Helvetica;fontSize=11;fontColor=default;labelBackgroundColor=default;" vertex="1" parent="WIyWlLk6GJQsqaUBKTNV-1">
          <mxGeometry x="114" y="154" width="30" height="30" as="geometry" />
        </mxCell>
        <mxCell id="NVvjuVTjwXFd6pgVgbkl-170" style="edgeStyle=orthogonalEdgeStyle;rounded=0;orthogonalLoop=1;jettySize=auto;html=1;dashed=1;dashPattern=8 8;strokeColor=default;align=center;verticalAlign=middle;fontFamily=Helvetica;fontSize=11;fontColor=default;labelBackgroundColor=default;endArrow=open;endFill=0;" edge="1" parent="WIyWlLk6GJQsqaUBKTNV-1" source="NVvjuVTjwXFd6pgVgbkl-15" target="NVvjuVTjwXFd6pgVgbkl-19">
          <mxGeometry relative="1" as="geometry">
            <Array as="points">
              <mxPoint x="110" y="-270" />
              <mxPoint x="110" y="-270" />
            </Array>
          </mxGeometry>
        </mxCell>
        <mxCell id="NVvjuVTjwXFd6pgVgbkl-173" style="edgeStyle=orthogonalEdgeStyle;rounded=0;orthogonalLoop=1;jettySize=auto;html=1;dashed=1;dashPattern=8 8;strokeColor=default;align=center;verticalAlign=middle;fontFamily=Helvetica;fontSize=11;fontColor=default;labelBackgroundColor=default;endArrow=open;endFill=0;exitX=1;exitY=0.5;exitDx=0;exitDy=0;" edge="1" parent="WIyWlLk6GJQsqaUBKTNV-1" target="NVvjuVTjwXFd6pgVgbkl-174">
          <mxGeometry relative="1" as="geometry">
            <mxPoint x="350.05999999999955" y="-288.5" as="sourcePoint" />
            <mxPoint x="680.0599999999995" y="-288.44117647058806" as="targetPoint" />
            <Array as="points">
              <mxPoint x="350" y="-272" />
              <mxPoint x="490" y="-272" />
              <mxPoint x="490" y="-350" />
            </Array>
          </mxGeometry>
        </mxCell>
        <mxCell id="NVvjuVTjwXFd6pgVgbkl-175" style="edgeStyle=orthogonalEdgeStyle;rounded=0;orthogonalLoop=1;jettySize=auto;html=1;dashed=1;dashPattern=8 8;strokeColor=default;align=center;verticalAlign=middle;fontFamily=Helvetica;fontSize=11;fontColor=default;labelBackgroundColor=default;endArrow=open;endFill=0;" edge="1" parent="WIyWlLk6GJQsqaUBKTNV-1" source="NVvjuVTjwXFd6pgVgbkl-17" target="NVvjuVTjwXFd6pgVgbkl-49">
          <mxGeometry relative="1" as="geometry" />
        </mxCell>
        <mxCell id="NVvjuVTjwXFd6pgVgbkl-176" style="edgeStyle=orthogonalEdgeStyle;rounded=0;orthogonalLoop=1;jettySize=auto;html=1;dashed=1;dashPattern=8 8;strokeColor=default;align=center;verticalAlign=middle;fontFamily=Helvetica;fontSize=11;fontColor=default;labelBackgroundColor=default;endArrow=open;endFill=0;" edge="1" parent="WIyWlLk6GJQsqaUBKTNV-1" source="NVvjuVTjwXFd6pgVgbkl-49" target="NVvjuVTjwXFd6pgVgbkl-60">
          <mxGeometry relative="1" as="geometry" />
        </mxCell>
        <mxCell id="NVvjuVTjwXFd6pgVgbkl-177" style="edgeStyle=orthogonalEdgeStyle;rounded=0;orthogonalLoop=1;jettySize=auto;html=1;dashed=1;dashPattern=8 8;strokeColor=default;align=center;verticalAlign=middle;fontFamily=Helvetica;fontSize=11;fontColor=default;labelBackgroundColor=default;endArrow=open;endFill=0;" edge="1" parent="WIyWlLk6GJQsqaUBKTNV-1" source="NVvjuVTjwXFd6pgVgbkl-49" target="NVvjuVTjwXFd6pgVgbkl-54">
          <mxGeometry relative="1" as="geometry" />
        </mxCell>
        <mxCell id="NVvjuVTjwXFd6pgVgbkl-180" style="edgeStyle=orthogonalEdgeStyle;rounded=0;orthogonalLoop=1;jettySize=auto;html=1;dashed=1;dashPattern=8 8;strokeColor=default;align=center;verticalAlign=middle;fontFamily=Helvetica;fontSize=11;fontColor=default;labelBackgroundColor=default;endArrow=open;endFill=0;" edge="1" parent="WIyWlLk6GJQsqaUBKTNV-1" source="NVvjuVTjwXFd6pgVgbkl-81" target="C9QC6dtbuInkQibl6JLa-35">
          <mxGeometry relative="1" as="geometry" />
        </mxCell>
        <mxCell id="NVvjuVTjwXFd6pgVgbkl-181" value="1" style="text;html=1;align=center;verticalAlign=middle;resizable=0;points=[];autosize=1;strokeColor=none;fillColor=none;fontFamily=Helvetica;fontSize=11;fontColor=default;labelBackgroundColor=default;" vertex="1" parent="WIyWlLk6GJQsqaUBKTNV-1">
          <mxGeometry x="265" y="-368" width="30" height="30" as="geometry" />
        </mxCell>
        <mxCell id="NVvjuVTjwXFd6pgVgbkl-182" value="*" style="text;html=1;align=center;verticalAlign=middle;resizable=0;points=[];autosize=1;strokeColor=none;fillColor=none;fontFamily=Helvetica;fontSize=11;fontColor=default;labelBackgroundColor=default;" vertex="1" parent="WIyWlLk6GJQsqaUBKTNV-1">
          <mxGeometry x="265" y="-448" width="30" height="30" as="geometry" />
        </mxCell>
        <mxCell id="NVvjuVTjwXFd6pgVgbkl-184" value="JFrame" style="swimlane;fontStyle=1;align=center;verticalAlign=top;childLayout=stackLayout;horizontal=1;startSize=26;horizontalStack=0;resizeParent=1;resizeParentMax=0;resizeLast=0;collapsible=1;marginBottom=0;whiteSpace=wrap;html=1;" vertex="1" parent="WIyWlLk6GJQsqaUBKTNV-1">
          <mxGeometry x="114" y="-122" width="97" height="34" as="geometry" />
        </mxCell>
        <mxCell id="NVvjuVTjwXFd6pgVgbkl-185" value="" style="line;strokeWidth=1;fillColor=none;align=left;verticalAlign=middle;spacingTop=-1;spacingLeft=3;spacingRight=3;rotatable=0;labelPosition=right;points=[];portConstraint=eastwest;strokeColor=inherit;" vertex="1" parent="NVvjuVTjwXFd6pgVgbkl-184">
          <mxGeometry y="26" width="97" height="8" as="geometry" />
        </mxCell>
      </root>
    </mxGraphModel>
  </diagram>
</mxfile>
